<svg xmlns="http://www.w3.org/2000/svg" width="1124.5125168440811" height="656" viewBox="0 0 70.28203230275507 41">
    <path
        fill="#9BD3E1"
        stroke="red"
        stroke-linecap="square"
        stroke-width="0.1"
        d="M 34.641016151377535 40.75
           L 69.28203230275507 20.75
           L 62.35382907247956 16.75
           L 61.48780366869512 17.25
           L 62.35382907247956 17.75
           L 61.48780366869512 18.25
           L 62.35382907247956 18.75
           L 58.02370205355737 21.25
           L 58.889727457341806 21.75
           L 58.02370205355737 22.25
           L 58.889727457341806 22.75
           L 57.15767664977293 23.75
           L 56.29165124598849 23.25
           L 54.55960043841962 24.25
           L 55.425625842204056 24.75
           L 54.55960043841962 25.25
           L 55.425625842204056 25.75
           L 54.55960043841962 26.25
           L 55.425625842204056 26.75
           L 50.229473419497424 29.75
           L 51.095498823281865 30.25
           L 45.89934640057523 33.25
           L 45.03332099679079 32.75
           L 44.16729559300636 33.25
           L 42.43524478543748 32.25
           L 43.30127018922192 31.75
           L 42.43524478543748 31.25
           L 43.30127018922192 30.75
           L 42.43524478543748 30.25
           L 44.16729559300636 29.25
           L 41.56921938165304 27.75
           L 40.7031939778686 28.25
           L 39.83716857408417 27.75
           L 38.10511776651529 28.75
           L 37.23909236273085 28.25
           L 36.37306695894641 28.75
           L 35.507041555161976 28.25
           L 34.641016151377535 28.75
           L 33.774990747593094 28.25
           L 32.90896534380866 28.75
           L 30.310889132455344 27.25
           L 29.444863728670903 27.75
           L 27.712812921102028 26.75
           L 28.578838324886465 26.25
           L 27.712812921102028 25.75
           L 35.507041555161976 21.25
           L 36.37306695894641 21.75
           L 38.10511776651529 20.75
           L 34.641016151377535 18.75
           L 32.90896534380866 19.75
           L 32.04293994002422 19.25
           L 31.17691453623978 19.75
           L 30.310889132455344 19.25
           L 31.17691453623978 18.75
           L 25.980762113533153 15.75
           L 26.84678751731759 15.25
           L 23.382685902179837 13.25
           L 24.248711305964274 12.75
           L 22.516660498395396 11.75
           L 23.382685902179837 11.25
           L 22.516660498395396 10.75
           L 24.248711305964274 9.75
           L 23.382685902179837 9.25
           L 24.248711305964274 8.75
           L 23.382685902179837 8.25
           L 25.114736709748712 7.25
           L 25.980762113533153 7.75
           L 26.84678751731759 7.25
           L 29.444863728670903 8.75
           L 28.578838324886465 9.25
           L 32.04293994002422 11.25
           L 32.90896534380866 10.75
           L 34.641016151377535 11.75
           L 33.774990747593094 12.25
           L 36.37306695894641 13.75
           L 38.10511776651529 12.75
           L 38.971143170299726 13.25
           L 40.7031939778686 12.25
           L 41.56921938165304 12.75
           L 42.43524478543748 12.25
           L 44.16729559300636 13.25
           L 45.03332099679079 12.75
           L 47.63139720814411 14.25
           L 46.765371804359674 14.75
           L 47.63139720814411 15.25
           L 45.89934640057523 16.25
           L 46.765371804359674 16.75
           L 45.03332099679079 17.75
           L 45.89934640057523 18.25
           L 41.56921938165304 20.75
           L 42.43524478543748 21.25
           L 41.56921938165304 21.75
           L 42.43524478543748 22.25
           L 41.56921938165304 22.75
           L 42.43524478543748 23.25
           L 41.56921938165304 23.75
           L 45.03332099679079 25.75
           L 44.16729559300636 26.25
           L 45.03332099679079 26.75
           L 45.89934640057523 26.25
           L 46.765371804359674 26.75
           L 47.63139720814411 26.25
           L 48.49742261192855 26.75
           L 49.36344801571299 26.25
           L 48.49742261192855 25.75
           L 49.36344801571299 25.25
           L 46.765371804359674 23.75
           L 47.63139720814411 23.25
           L 46.765371804359674 22.75
           L 49.36344801571299 21.25
           L 48.49742261192855 20.75
           L 52.82754963085074 18.25
           L 51.095498823281865 17.25
           L 51.961524227066306 16.75
           L 51.095498823281865 16.25
           L 52.82754963085074 15.25
           L 51.961524227066306 14.75
           L 52.82754963085074 14.25
           L 51.961524227066306 13.75
           L 53.69357503463518 12.75
           L 54.55960043841962 13.25
           L 55.425625842204056 12.75
           L 34.641016151377535 0.75
           L 30.310889132455344 3.25
           L 31.17691453623978 3.75
           L 32.04293994002422 3.25
           L 33.774990747593094 4.25
           L 34.641016151377535 3.75
           L 36.37306695894641 4.75
           L 35.507041555161976 5.25
           L 36.37306695894641 5.75
           L 33.774990747593094 7.25
           L 32.90896534380866 6.75
           L 32.04293994002422 7.25
           L 31.17691453623978 6.75
           L 30.310889132455344 7.25
           L 28.578838324886465 6.25
           L 29.444863728670903 5.75
           L 28.578838324886465 5.25
           L 29.444863728670903 4.75
           L 28.578838324886465 4.25
           L 6.0621778264910695 17.25
           L 6.928203230275507 17.75
           L 7.7942286340599445 17.25
           L 10.39230484541326 18.75
           L 11.258330249197698 18.25
           L 13.856406460551014 19.75
           L 12.990381056766577 20.25
           L 13.856406460551014 20.75
           L 12.124355652982139 21.75
           L 11.258330249197698 21.25
           L 9.526279441628823 22.25
           L 10.39230484541326 22.75
           L 8.660254037844382 23.75
           L 7.7942286340599445 23.25
           L 6.928203230275507 23.75
           L 4.330127018922191 22.25
           L 3.4641016151377535 22.75
           L 34.641016151377535 40.75

           L 17.320508075688767 29.75
           L 13.856406460551014 27.75
           L 16.45448267190433 26.25
           L 19.918584287042084 28.25
           L 17.320508075688767 29.75
           Z"
    />
    <path
        fill="#9BD3E1"
        stroke="red"
        stroke-linecap="square"
        stroke-width="0.1"
        d="M 35.507041555161976 39.25
           L 38.10511776651529 37.75
           L 37.23909236273085 37.25
           L 39.83716857408417 35.75
           L 38.971143170299726 35.25
           L 39.83716857408417 34.75
           L 38.971143170299726 34.25
           L 39.83716857408417 33.75
           L 36.37306695894641 31.75
           L 35.507041555161976 32.25
           L 34.641016151377535 31.75
           L 30.310889132455344 34.25
           L 31.17691453623978 34.75
           L 30.310889132455344 35.25
           L 31.17691453623978 35.75
           L 30.310889132455344 36.25
           L 31.17691453623978 36.75
           L 30.310889132455344 37.25
           L 33.774990747593094 39.25
           L 34.641016151377535 38.75Z"
    />
    <path
        fill="#9BD3E1"
        stroke="red"
        stroke-linecap="square"
        stroke-width="0.1"
        d="M 58.889727457341806 14.75
           L 58.02370205355737 15.25
           L 58.889727457341806 15.75
           L 59.75575286112625 15.25 Z"
    />
    <path
        fill="#9BD3E1"
        stroke="red"
        stroke-linecap="square"
        stroke-width="0.1"
        d="M 40.7031939778686 18.25
           L 42.43524478543748 17.25
           L 41.56921938165304 16.75
           L 42.43524478543748 16.25
           L 39.83716857408417 14.75
           L 37.23909236273085 16.25
           L 38.971143170299726 17.25
           L 38.10511776651529 17.75
           L 38.971143170299726 18.25
           L 39.83716857408417 17.75Z"
    />
    <path
        fill="#9BD3E1"
        stroke="red"
        stroke-linecap="square"
        stroke-width="0.1"
        style="display: none;"
        d="M 17.320508075688767 29.75
           L 19.918584287042084 28.25
           L 16.45448267190433 26.25
           L 13.856406460551014 27.75Z"
    />
<!--<path d="M 0.866025403784441 20.25
           L 0 20.75
           L 0.866025403784441 21.25
           L 1.732050807568875 20.75 Z" fill="#9BD3E1"-->
<!--      stroke="red" stroke-linecap="square" stroke-width="0.1"></path>-->
<!--<path d="M 45.89934640057523 33
           L 50.229473419497424 30.5
           L 49.36344801571299 30
           L 55.425625842204056 26.5
           L 54.55960043841962 26
           L 55.425625842204056 25.5
           L 54.55960043841962 25
           L 55.425625842204056 24.5
           L 54.55960043841962 24
           L 56.29165124598849 23
           L 57.15767664977293 23.5
           L 58.889727457341806 22.5
           L 58.02370205355737 22
           L 58.889727457341806 21.5
           L 58.02370205355737 21
           L 62.35382907247956 18.5
           L 61.48780366869512 18
           L 62.35382907247956 17.5
           L 60.62177826491069 16.5
           L 59.75575286112625 17
           L 58.02370205355737 16
           L 58.889727457341806 15.5
           L 58.02370205355737 15
           L 58.889727457341806 14.5
           L 55.425625842204056 12.5
           L 54.55960043841962 13
           L 53.69357503463518 12.5
           L 51.961524227066306 13.5
           L 52.82754963085074 14
           L 51.961524227066306 14.5
           L 52.82754963085074 15
           L 51.095498823281865 16
           L 51.961524227066306 16.5
           L 51.095498823281865 17
           L 52.82754963085074 18
           L 51.961524227066306 18.5
           L 52.82754963085074 19
           L 51.095498823281865 20
           L 50.229473419497424 19.5
           L 48.49742261192855 20.5
           L 49.36344801571299 21
           L 46.765371804359674 22.5
           L 47.63139720814411 23
           L 46.765371804359674 23.5
           L 49.36344801571299 25
           L 48.49742261192855 25.5
           L 49.36344801571299 26
           L 47.63139720814411 27
           L 46.765371804359674 26.5
           L 45.89934640057523 27
           L 44.16729559300636 26
           L 45.03332099679079 25.5
           L 41.56921938165304 23.5
           L 42.43524478543748 23
           L 41.56921938165304 22.5
           L 42.43524478543748 22
           L 41.56921938165304 21.5
           L 42.43524478543748 21
           L 41.56921938165304 20.5
           L 45.03332099679079 18.5
           L 44.16729559300636 18
           L 46.765371804359674 16.5
           L 45.89934640057523 16
           L 47.63139720814411 15
           L 46.765371804359674 14.5
           L 45.89934640057523 15
           L 44.16729559300636 14
           L 45.03332099679079 13.5
           L 42.43524478543748 12
           L 40.7031939778686 13
           L 39.83716857408417 12.5
           L 38.971143170299726 13
           L 38.10511776651529 12.5
           L 36.37306695894641 13.5
           L 33.774990747593094 12
           L 34.641016151377535 11.5
           L 32.90896534380866 10.5
           L 32.04293994002422 11
           L 28.578838324886465 9
           L 29.444863728670903 8.5
           L 28.578838324886465 8
           L 25.114736709748712 10
           L 24.248711305964274 9.5
           L 22.516660498395396 10.5
           L 23.382685902179837 11
           L 22.516660498395396 11.5
           L 25.114736709748712 13
           L 24.248711305964274 13.5
           L 27.712812921102028 15.5
           L 26.84678751731759 16
           L 28.578838324886465 17
           L 29.444863728670903 16.5
           L 31.17691453623978 17.5
           L 30.310889132455344 18
           L 32.90896534380866 19.5
           L 34.641016151377535 18.5
           L 35.507041555161976 19
           L 36.37306695894641 18.5
           L 38.10511776651529 19.5
           L 37.23909236273085 20
           L 38.10511776651529 20.5
           L 35.507041555161976 22
           L 34.641016151377535 21.5
           L 27.712812921102028 25.5
           L 28.578838324886465 26
           L 27.712812921102028 26.5
           L 29.444863728670903 27.5
           L 31.17691453623978 26.5
           L 32.04293994002422 27
           L 32.90896534380866 26.5
           L 34.641016151377535 27.5
           L 33.774990747593094 28
           L 34.641016151377535 28.5
           L 35.507041555161976 28
           L 36.37306695894641 28.5
           L 38.10511776651529 27.5
           L 38.971143170299726 28
           L 39.83716857408417 27.5
           L 40.7031939778686 28
           L 41.56921938165304 27.5
           L 44.16729559300636 29
           L 43.30127018922192 29.5
           L 44.16729559300636 30
           L 42.43524478543748 31
           L 43.30127018922192 31.5
           L 42.43524478543748 32
           L 44.16729559300636 33
           L 45.03332099679079 32.5 Z"-->
<!--      fill="#8AB549" stroke="red" stroke-linecap="square" stroke-width="0.1"></path>-->
<!--<path d="M 50.229473419497424 29.5
           L 49.36344801571299 30
           L 50.229473419497424 30.5
           L 51.095498823281865 30 Z"-->
<!--      fill="#D7D09D" stroke="red" stroke-linecap="square" stroke-width="0.1"></path>-->
<!--<path d="M 35.507041555161976 37
           L 34.641016151377535 37.5
           L 35.507041555161976 38
           L 36.37306695894641 37.5 Z"-->
<!--      fill="#D7D09D" stroke="red" stroke-linecap="square" stroke-width="0.1"></path>-->
<!--<path d="M 33.774990747593094 38
           L 38.10511776651529 35.5
           L 37.23909236273085 35
           L 38.10511776651529 34.5
           L 36.37306695894641 33.5
           L 37.23909236273085 33
           L 36.37306695894641 32.5
           L 35.507041555161976 33
           L 34.641016151377535 32.5
           L 32.04293994002422 34
           L 32.90896534380866 34.5
           L 32.04293994002422 35
           L 32.90896534380866 35.5
           L 32.04293994002422 36
           L 32.90896534380866 36.5
           L 32.04293994002422 37Z"-->
<!--      fill="#8AB549" stroke="red" stroke-linecap="square" stroke-width="0.1"></path>-->
<!--<path d="M 37.23909236273085 33
           L 36.37306695894641 33.5
           L 37.23909236273085 34
           L 38.10511776651529 33.5 Z"-->
<!--      fill="#D7D09D" stroke="red" stroke-linecap="square" stroke-width="0.1"></path>-->
<!--<path d="M 43.30127018922192 29.5
           L 42.43524478543748 30
           L 43.30127018922192 30.5
           L 44.16729559300636 30 Z"-->
<!--      fill="#D7D09D" stroke="red" stroke-linecap="square" stroke-width="0.1"></path>-->
<!--<path d="M 47.63139720814411 26
           L 46.765371804359674 26.5
           L 47.63139720814411 27
           L 48.49742261192855 26.5 Z"-->
<!--      fill="#D7D09D" stroke="red" stroke-linecap="square" stroke-width="0.1"></path>-->
<!--<path d="M 45.89934640057523 26
           L 45.03332099679079 26.5
           L 45.89934640057523 27
           L 46.765371804359674 26.5 Z"-->
<!--      fill="#D7D09D" stroke="red" stroke-linecap="square" stroke-width="0.1"></path>-->
<!--<path d="M 61.48780366869512 17
           L 62.35382907247956 16.5
           L 59.75575286112625 15
           L 58.02370205355737 16
           L 59.75575286112625 17
           L 60.62177826491069 16.5Z"-->
<!--      fill="#D7D09D" stroke="red" stroke-linecap="square" stroke-width="0.1"></path>-->
<!--<path d="M 38.10511776651529 27.5
           L 37.23909236273085 28
           L 38.10511776651529 28.5
           L 38.971143170299726 28 Z"-->
<!--      fill="#D7D09D" stroke="red" stroke-linecap="square" stroke-width="0.1"></path>-->
<!--<path d="M 50.229473419497424 19.5
           L 51.095498823281865 20
           L 52.82754963085074 19
           L 51.961524227066306 18.5Z"-->
<!--      fill="#D7D09D" stroke="red" stroke-linecap="square" stroke-width="0.1"></path>-->
<!--<path d="M 32.90896534380866 28.5
           L 34.641016151377535 27.5
           L 32.90896534380866 26.5
           L 32.04293994002422 27
           L 31.17691453623978 26.5
           L 30.310889132455344 27Z"-->
<!--      fill="#D7D09D" stroke="red" stroke-linecap="square" stroke-width="0.1"></path>-->
<!--<path d="M 45.03332099679079 17.5
           L 44.16729559300636 18
           L 45.03332099679079 18.5
           L 45.89934640057523 18 Z"-->
<!--      fill="#D7D09D" stroke="red" stroke-linecap="square" stroke-width="0.1"></path>-->
<!--<path d="M 35.507041555161976 21
           L 34.641016151377535 21.5
           L 35.507041555161976 22
           L 36.37306695894641 21.5 Z"-->
<!--      fill="#D7D09D" stroke="red" stroke-linecap="square" stroke-width="0.1"></path>-->
<!--<path d="M 40.7031939778686 19
           L 44.16729559300636 17
           L 43.30127018922192 16.5
           L 44.16729559300636 16
           L 39.83716857408417 13.5
           L 35.507041555161976 16
           L 36.37306695894641 16.5
           L 35.507041555161976 17
           L 38.971143170299726 19
           L 39.83716857408417 18.5Z"-->
<!--      fill="#8AB549" stroke="red" stroke-linecap="square" stroke-width="0.1" style="display: none;"></path>-->
<!--<path d="M 37.23909236273085 20
           L 38.10511776651529 19.5
           L 36.37306695894641 18.5
           L 35.507041555161976 19Z"-->
<!--      fill="#D7D09D" stroke="red" stroke-linecap="square" stroke-width="0.1"></path>-->
<!--<path d="M 45.89934640057523 15
           L 47.63139720814411 14
           L 45.03332099679079 12.5
           L 44.16729559300636 13
           L 45.03332099679079 13.5
           L 44.16729559300636 14Z"-->
<!--      fill="#D7D09D" stroke="red" stroke-linecap="square" stroke-width="0.1"></path>-->
<!--<path d="M 38.10511776651529 16.5
           L 37.23909236273085 17
           L 38.10511776651529 17.5
           L 38.971143170299726 17 Z"-->
<!--      fill="#D7D09D" stroke="red" stroke-linecap="square" stroke-width="0.1"></path>-->
<!--<path d="M 17.320508075688767 27.5
           L 16.45448267190433 28
           L 17.320508075688767 28.5
           L 18.186533479473205 28 Z"-->
<!--      fill="#8AB549" stroke="red" stroke-linecap="square" stroke-width="0.1"></path>-->
<!--<path d="M 16.45448267190433 27
           L 15.588457268119889 27.5
           L 16.45448267190433 28
           L 17.320508075688767 27.5 Z"-->
<!--      fill="#D7D09D" stroke="red" stroke-linecap="square" stroke-width="0.1"></path>-->
<!--<path d="M 31.17691453623978 18.5
           L 30.310889132455344 19
           L 31.17691453623978 19.5
           L 32.04293994002422 19 Z"-->
<!--      fill="#D7D09D" stroke="red" stroke-linecap="square" stroke-width="0.1"></path>-->
<!--<path d="M 40.7031939778686 12
           L 39.83716857408417 12.5
           L 40.7031939778686 13
           L 41.56921938165304 12.5 Z" fill="#D7D09D"-->
<!--      stroke="red" stroke-linecap="square" stroke-width="0.1"></path>-->
<!--<path d="M 30.310889132455344 18
           L 31.17691453623978 17.5
           L 29.444863728670903 16.5
           L 28.578838324886465 17Z"-->
<!--      fill="#D7D09D" stroke="red" stroke-linecap="square" stroke-width="0.1"></path>-->
<!--<path d="M 26.84678751731759 15
           L 25.980762113533153 15.5
           L 26.84678751731759 16
           L 27.712812921102028 15.5 Z"-->
<!--      fill="#D7D09D" stroke="red" stroke-linecap="square" stroke-width="0.1"></path>-->
<!--<path d="M 8.660254037844382 23.5
           L 10.39230484541326 22.5
           L 9.526279441628823 22
           L 11.258330249197698 21
           L 10.39230484541326 20.5
           L 12.990381056766577 19
           L 11.258330249197698 18
           L 10.39230484541326 18.5
           L 8.660254037844382 17.5
           L 7.7942286340599445 18
           L 6.928203230275507 17.5
           L 6.0621778264910695 18
           L 5.196152422706632 17.5
           L 0.866025403784441 20
           L 1.732050807568875 20.5
           L 0.866025403784441 21
           L 3.4641016151377535 22.5
           L 4.330127018922191 22
           L 6.928203230275507 23.5
           L 7.7942286340599445 23Z"-->
<!--      fill="#8AB549" stroke="red" stroke-linecap="square" stroke-width="0.1"></path>-->
<!--<path d="M 12.124355652982139 21.5
           L 13.856406460551014 20.5
           L 12.990381056766577 20
           L 13.856406460551014 19.5
           L 12.990381056766577 19
           L 10.39230484541326 20.5Z"-->
<!--      fill="#D7D09D" stroke="red" stroke-linecap="square" stroke-width="0.1"></path>-->
<!--<path d="M 24.248711305964274 12.5
           L 23.382685902179837 13
           L 24.248711305964274 13.5
           L 25.114736709748712 13 Z"-->
<!--      fill="#D7D09D" stroke="red" stroke-linecap="square" stroke-width="0.1"></path>-->
<!--<path d="M 33.774990747593094 7
           L 36.37306695894641 5.5
           L 35.507041555161976 5
           L 36.37306695894641 4.5
           L 34.641016151377535 3.5
           L 33.774990747593094 4
           L 32.90896534380866 3.5
           L 32.04293994002422 4
           L 30.310889132455344 3
           L 28.578838324886465 4
           L 29.444863728670903 4.5
           L 28.578838324886465 5
           L 29.444863728670903 5.5
           L 28.578838324886465 6
           L 30.310889132455344 7
           L 31.17691453623978 6.5
           L 32.04293994002422 7
           L 32.90896534380866 6.5Z"-->
<!--      fill="#8AB549" stroke="red" stroke-linecap="square" stroke-width="0.1"></path>-->
<!--<path d="M 25.114736709748712 10
           L 28.578838324886465 8
           L 26.84678751731759 7
           L 25.114736709748712 8
           L 24.248711305964274 7.5
           L 23.382685902179837 8
           L 24.248711305964274 8.5
           L 23.382685902179837 9Z"-->
<!--      fill="#D7D09D" stroke="red" stroke-linecap="square" stroke-width="0.1"></path>-->
<!--<path d="M 7.7942286340599445 17
           L 6.928203230275507 17.5
           L 7.7942286340599445 18
           L 8.660254037844382 17.5 Z"-->
<!--      fill="#D7D09D" stroke="red" stroke-linecap="square" stroke-width="0.1"></path>-->
<!--<path d="M 25.114736709748712 7
           L 24.248711305964274 7.5
           L 25.114736709748712 8
           L 25.980762113533153 7.5 Z"-->
<!--      fill="#8AB549" stroke="red" stroke-linecap="square" stroke-width="0.1"></path>-->
<!--<path d="M 32.04293994002422 3
           L 31.17691453623978 3.5
           L 32.04293994002422 4
           L 32.90896534380866 3.5 Z" fill="#D7D09D"-->
<!--      stroke="red" stroke-linecap="square" stroke-width="0.1"></path>-->
<!--<path d="M 6.0621778264910695 17
           L 5.196152422706632 17.5
           L 6.0621778264910695 18
           L 6.928203230275507 17.5 Z"-->
<!--      fill="#D7D09D" stroke="red" stroke-linecap="square" stroke-width="0.1"></path>-->
</svg>
